# xmcd
#
# Track frame offsets: 
#        150
#        17982
#        38320
#        58335
#        87017
#        112542
#        125052
#        159530
#        181822
#        201965
#        216632
#        247377
#        265305
#
# Disc length: 4394 seconds
#
# Revision: 0
# Processed by: cddbd v1.5.2PL0 Copyright (c) Steve Scherf et al.
# Submitted via: ExactAudioCopy v0.95b2
#
DISCID=ba11280d
DTITLE=Colosseum - Those who are about to die salute you_Valentyne Sui
DTITLE=te
DYEAR=1969
DGENRE=Bluesrock
TTITLE0=Walking in the Park
TTITLE1=Plenty hard luck
TTITLE2=Mandarin
TTITLE3=Debut
TTITLE4=Beware the Ides of March
TTITLE5=The road she walked before
TTITLE6=Blackwater Blues
TTITLE7=Those about to die
TTITLE8=The Kettle
TTITLE9=Elegy
TTITLE10=Butty's Blues
TTITLE11=The machine demands a sacrifice
TTITLE12=The Valentyne Suite
EXTD=
EXTT0=
EXTT1=
EXTT2=
EXTT3=
EXTT4=
EXTT5=
EXTT6=
EXTT7=
EXTT8=
EXTT9=
EXTT10=
EXTT11=
EXTT12=
PLAYORDER=
